PathFileType	4	(X/Y/Z)	E:/Microgravity/Neeraj_13_07_24_t02 _without_weight_pp.trc													
DataRate	CameraRate	NumFrames	NumMarkers	Units	OrigDataRate	OrigDataStartFrame	OrigNumFrames									
120	120	45	5	m	120	1	7058									
Frame#	Time	RHAND			r_radius_styloid			RWRB			r_humerus_epicondyle			r_acromion		
		X1	Y1	Z1	X2	Y2	Z2	X3	Y3	Z3	X4	Y4	Z4	X5	Y5	Z5
																
1	0	0.10995	-0.61925	0.27831	0.06733	-0.52514	0.31877	0.02589	-0.5597	0.23445	0.00225	-0.29617	0.27314	-0.00633	0.0855	0.18431
2	0.008	0.1099	-0.61923	0.27831	0.06729	-0.52512	0.31875	0.02589	-0.5597	0.23445	0.00221	-0.29615	0.27312	-0.00633	0.08554	0.18427
3	0.017	0.10986	-0.61921	0.27831	0.06725	-0.5251	0.31874	0.02589	-0.55971	0.23445	0.00218	-0.29612	0.2731	-0.00634	0.08557	0.18423
4	0.025	0.10982	-0.61919	0.2783	0.06721	-0.52507	0.31872	0.02587	-0.55971	0.23445	0.00214	-0.2961	0.27308	-0.00636	0.0856	0.18419
5	0.033	0.10978	-0.61917	0.27829	0.06716	-0.52505	0.31871	0.02583	-0.55969	0.23444	0.0021	-0.29608	0.27306	-0.00638	0.08562	0.18415
6	0.042	0.10974	-0.61915	0.27829	0.06712	-0.52503	0.3187	0.02578	-0.55966	0.23443	0.00206	-0.29605	0.27304	-0.0064	0.08564	0.18411
7	0.05	0.1097	-0.61914	0.27829	0.06707	-0.52501	0.31869	0.02573	-0.55964	0.23443	0.00202	-0.29603	0.27302	-0.00642	0.08566	0.18408
8	0.058	0.10964	-0.61913	0.27828	0.06702	-0.52499	0.31868	0.02568	-0.55962	0.23442	0.00198	-0.29601	0.27299	-0.00644	0.08567	0.18404
9	0.067	0.10959	-0.61912	0.27828	0.06697	-0.52497	0.31867	0.02563	-0.5596	0.23441	0.00193	-0.296	0.27297	-0.00646	0.08569	0.18401
10	0.075	0.10954	-0.61911	0.27828	0.06692	-0.52495	0.31867	0.02558	-0.55958	0.2344	0.00188	-0.29598	0.27295	-0.00649	0.0857	0.18398
11	0.083	0.10948	-0.61909	0.27828	0.06687	-0.52493	0.31867	0.02552	-0.55956	0.23439	0.00183	-0.29596	0.27293	-0.00652	0.08572	0.18394
12	0.092	0.10943	-0.61908	0.27829	0.06681	-0.52491	0.31866	0.02546	-0.55955	0.23437	0.00177	-0.29595	0.2729	-0.00656	0.08573	0.1839
13	0.1	0.10937	-0.61907	0.27829	0.06675	-0.52489	0.31866	0.02539	-0.55953	0.23436	0.00172	-0.29593	0.27288	-0.0066	0.08574	0.18386
14	0.108	0.10931	-0.61905	0.2783	0.06669	-0.52488	0.31866	0.02531	-0.55952	0.23433	0.00166	-0.29591	0.27286	-0.00665	0.08575	0.18382
15	0.117	0.10925	-0.61903	0.2783	0.06662	-0.52486	0.31866	0.02525	-0.5595	0.23432	0.0016	-0.2959	0.27284	-0.00669	0.08577	0.18377
16	0.125	0.10919	-0.61901	0.27831	0.06655	-0.52484	0.31866	0.02523	-0.5595	0.23433	0.00154	-0.29588	0.27282	-0.00674	0.08578	0.18373
17	0.133	0.10913	-0.619	0.27831	0.06648	-0.52482	0.31866	0.02522	-0.55951	0.23434	0.00148	-0.29587	0.27279	-0.00679	0.08579	0.1837
18	0.142	0.10907	-0.61899	0.27832	0.06641	-0.52481	0.31867	0.0252	-0.55951	0.23435	0.00141	-0.29586	0.27277	-0.00684	0.08579	0.18366
19	0.15	0.109	-0.61898	0.27833	0.06633	-0.52479	0.31867	0.02518	-0.55952	0.23436	0.00134	-0.29585	0.27275	-0.00689	0.0858	0.18362
20	0.158	0.10894	-0.61898	0.27834	0.06626	-0.52478	0.31868	0.02515	-0.55953	0.23436	0.00128	-0.29584	0.27273	-0.00694	0.0858	0.18359
21	0.167	0.10886	-0.61898	0.27835	0.06618	-0.52477	0.31869	0.02511	-0.55954	0.23435	0.00121	-0.29584	0.27271	-0.007	0.0858	0.18355
22	0.175	0.10879	-0.61898	0.27837	0.0661	-0.52476	0.3187	0.02508	-0.55957	0.23434	0.00114	-0.29583	0.27269	-0.00705	0.0858	0.18352
23	0.183	0.10871	-0.61899	0.27838	0.06602	-0.52475	0.3187	0.02505	-0.5596	0.23433	0.00107	-0.29583	0.27268	-0.00711	0.0858	0.18348
24	0.192	0.10863	-0.61899	0.27839	0.06594	-0.52475	0.31871	0.02502	-0.55965	0.23431	0.00101	-0.29584	0.27266	-0.00717	0.08579	0.18344
25	0.2	0.10854	-0.61901	0.27841	0.06587	-0.52475	0.31872	0.025	-0.55972	0.23428	0.00094	-0.29584	0.27264	-0.00724	0.08578	0.18341
26	0.208	0.10846	-0.61902	0.27842	0.06578	-0.52475	0.31873	0.02499	-0.55981	0.23425	0.00088	-0.29584	0.27262	-0.0073	0.08577	0.18337
27	0.217	0.10837	-0.61903	0.27843	0.0657	-0.52475	0.31874	0.02493	-0.55986	0.23422	0.00081	-0.29585	0.27261	-0.00736	0.08576	0.18334
28	0.225	0.10828	-0.61904	0.27844	0.06562	-0.52475	0.31874	0.02478	-0.55981	0.23421	0.00074	-0.29585	0.27259	-0.00742	0.08575	0.18331
29	0.233	0.1082	-0.61905	0.27845	0.06554	-0.52475	0.31874	0.02461	-0.55973	0.23421	0.00067	-0.29586	0.27257	-0.00748	0.08574	0.18328
30	0.242	0.10813	-0.61905	0.27846	0.06546	-0.52476	0.31874	0.0245	-0.55968	0.23423	0.0006	-0.29587	0.27254	-0.00754	0.08573	0.18324
31	0.25	0.10806	-0.61905	0.27846	0.06537	-0.52476	0.31874	0.02439	-0.55964	0.23423	0.00052	-0.29588	0.27252	-0.00761	0.08572	0.18321
32	0.258	0.10799	-0.61905	0.27846	0.06529	-0.52477	0.31873	0.02431	-0.55962	0.23422	0.00044	-0.29589	0.27249	-0.00767	0.08571	0.18317
33	0.267	0.10793	-0.61905	0.27846	0.0652	-0.52477	0.31872	0.02425	-0.55962	0.23422	0.00036	-0.2959	0.27247	-0.00774	0.0857	0.18314
34	0.275	0.10786	-0.61905	0.27845	0.06512	-0.52478	0.3187	0.02421	-0.55962	0.23422	0.00028	-0.29591	0.27244	-0.0078	0.08569	0.1831
35	0.283	0.10779	-0.61906	0.27844	0.06504	-0.52479	0.31869	0.02415	-0.55962	0.2342	0.00021	-0.29592	0.27241	-0.00787	0.08569	0.18307
36	0.292	0.10773	-0.61906	0.27843	0.06496	-0.5248	0.31867	0.02407	-0.55962	0.23416	0.00014	-0.29594	0.27238	-0.00793	0.08568	0.18305
37	0.3	0.10766	-0.61907	0.27842	0.06488	-0.52481	0.31865	0.02399	-0.55964	0.23411	0.00007	-0.29595	0.27235	-0.00799	0.08567	0.18302
38	0.308	0.10759	-0.61908	0.2784	0.06481	-0.52483	0.31863	0.02394	-0.55966	0.23407	0	-0.29597	0.27232	-0.00805	0.08565	0.183
39	0.317	0.10753	-0.61909	0.27838	0.06473	-0.52484	0.3186	0.02389	-0.5597	0.23402	-0.00006	-0.29598	0.27229	-0.00811	0.08564	0.18298
40	0.325	0.10747	-0.6191	0.27836	0.06466	-0.52485	0.31858	0.02384	-0.55974	0.23396	-0.00013	-0.29599	0.27225	-0.00818	0.08563	0.18295
41	0.333	0.10741	-0.61911	0.27834	0.06458	-0.52487	0.31855	0.02382	-0.5598	0.23389	-0.00019	-0.29601	0.27222	-0.00823	0.08562	0.18293
42	0.342	0.10734	-0.61912	0.27831	0.06451	-0.52488	0.31851	0.02382	-0.55988	0.23382	-0.00025	-0.29602	0.27218	-0.00829	0.0856	0.1829
43	0.35	0.10727	-0.61914	0.27828	0.06444	-0.5249	0.31847	0.0238	-0.55994	0.23376	-0.00031	-0.29604	0.27214	-0.00835	0.08559	0.18288
44	0.358	0.10721	-0.61915	0.27824	0.06437	-0.52491	0.31843	0.02368	-0.55989	0.23372	-0.00037	-0.29606	0.2721	-0.0084	0.08558	0.18285
45	0.367	0.10714	-0.61916	0.2782	0.0643	-0.52493	0.31838	0.02351	-0.55981	0.23367	-0.00042	-0.29607	0.27206	-0.00845	0.08558	0.18283
